STARTFONT 2.1
COMMENT
COMMENT Converted from OpenType font "monogram.ttf" by "otf2bdf 3.0".
COMMENT
FONT -FreeType-monogram-Medium-R-Normal--16-160-72-72-P-44-ISO10646-1
SIZE 16 72 72
FONTBOUNDINGBOX 5 9 0 -2
STARTPROPERTIES 19
FOUNDRY "FreeType"
FAMILY_NAME "monogram"
WEIGHT_NAME "Medium"
SLANT "R"
SETWIDTH_NAME "Normal"
ADD_STYLE_NAME ""
PIXEL_SIZE 16
POINT_SIZE 160
RESOLUTION_X 72
RESOLUTION_Y 72
SPACING "P"
AVERAGE_WIDTH 44
CHARSET_REGISTRY "ISO10646"
CHARSET_ENCODING "1"
FONT_ASCENT 10
FONT_DESCENT 2
COPYRIGHT "ViniciusMenezio"
_OTF_FONTFILE "monogram.ttf"
_OTF_PSNAME "monogram"
ENDPROPERTIES
CHARS 118
STARTCHAR 0020
ENCODING 32
SWIDTH 375 0
DWIDTH 6 0
BBX 0 0 0 0
BITMAP
ENDCHAR
STARTCHAR 0021
ENCODING 33
SWIDTH 375 0
DWIDTH 6 0
BBX 1 7 2 0
BITMAP
80
80
80
80
80
00
80
ENDCHAR
STARTCHAR 0022
ENCODING 34
SWIDTH 375 0
DWIDTH 6 0
BBX 3 3 1 4
BITMAP
A0
A0
A0
ENDCHAR
STARTCHAR 0023
ENCODING 35
SWIDTH 375 0
DWIDTH 6 0
BBX 5 6 0 0
BITMAP
50
F8
50
50
F8
50
ENDCHAR
STARTCHAR 0024
ENCODING 36
SWIDTH 375 0
DWIDTH 6 0
BBX 5 7 0 0
BITMAP
20
78
A0
70
28
F0
20
ENDCHAR
STARTCHAR 0025
ENCODING 37
SWIDTH 375 0
DWIDTH 6 0
BBX 5 7 0 0
BITMAP
88
88
10
20
40
88
88
ENDCHAR
STARTCHAR 0026
ENCODING 38
SWIDTH 375 0
DWIDTH 6 0
BBX 5 7 0 0
BITMAP
60
90
90
78
90
90
68
ENDCHAR
STARTCHAR 0027
ENCODING 39
SWIDTH 375 0
DWIDTH 6 0
BBX 1 3 2 4
BITMAP
80
80
80
ENDCHAR
STARTCHAR 0028
ENCODING 40
SWIDTH 375 0
DWIDTH 6 0
BBX 2 7 2 0
BITMAP
40
80
80
80
80
80
40
ENDCHAR
STARTCHAR 0029
ENCODING 41
SWIDTH 375 0
DWIDTH 6 0
BBX 2 7 1 0
BITMAP
80
40
40
40
40
40
80
ENDCHAR
STARTCHAR 002A
ENCODING 42
SWIDTH 375 0
DWIDTH 6 0
BBX 5 5 0 1
BITMAP
20
A8
70
A8
20
ENDCHAR
STARTCHAR 002B
ENCODING 43
SWIDTH 375 0
DWIDTH 6 0
BBX 5 5 0 1
BITMAP
20
20
F8
20
20
ENDCHAR
STARTCHAR 002C
ENCODING 44
SWIDTH 375 0
DWIDTH 6 0
BBX 2 3 1 -1
BITMAP
40
40
80
ENDCHAR
STARTCHAR 002D
ENCODING 45
SWIDTH 375 0
DWIDTH 6 0
BBX 5 1 0 3
BITMAP
F8
ENDCHAR
STARTCHAR 002E
ENCODING 46
SWIDTH 375 0
DWIDTH 6 0
BBX 1 2 2 0
BITMAP
80
80
ENDCHAR
STARTCHAR 002F
ENCODING 47
SWIDTH 375 0
DWIDTH 6 0
BBX 5 7 0 0
BITMAP
08
08
10
20
40
80
80
ENDCHAR
STARTCHAR 0030
ENCODING 48
SWIDTH 375 0
DWIDTH 6 0
BBX 5 7 0 0
BITMAP
70
88
98
A8
C8
88
70
ENDCHAR
STARTCHAR 0031
ENCODING 49
SWIDTH 375 0
DWIDTH 6 0
BBX 5 7 0 0
BITMAP
20
60
20
20
20
20
F8
ENDCHAR
STARTCHAR 0032
ENCODING 50
SWIDTH 375 0
DWIDTH 6 0
BBX 5 7 0 0
BITMAP
70
88
08
10
20
40
F8
ENDCHAR
STARTCHAR 0033
ENCODING 51
SWIDTH 375 0
DWIDTH 6 0
BBX 5 7 0 0
BITMAP
70
88
08
30
08
88
70
ENDCHAR
STARTCHAR 0034
ENCODING 52
SWIDTH 375 0
DWIDTH 6 0
BBX 5 7 0 0
BITMAP
48
48
88
F8
08
08
08
ENDCHAR
STARTCHAR 0035
ENCODING 53
SWIDTH 375 0
DWIDTH 6 0
BBX 5 7 0 0
BITMAP
F8
80
F0
08
08
88
70
ENDCHAR
STARTCHAR 0036
ENCODING 54
SWIDTH 375 0
DWIDTH 6 0
BBX 5 7 0 0
BITMAP
70
80
80
F0
88
88
70
ENDCHAR
STARTCHAR 0037
ENCODING 55
SWIDTH 375 0
DWIDTH 6 0
BBX 5 7 0 0
BITMAP
F8
08
08
10
20
20
20
ENDCHAR
STARTCHAR 0038
ENCODING 56
SWIDTH 375 0
DWIDTH 6 0
BBX 5 7 0 0
BITMAP
70
88
88
70
88
88
70
ENDCHAR
STARTCHAR 0039
ENCODING 57
SWIDTH 375 0
DWIDTH 6 0
BBX 5 7 0 0
BITMAP
70
88
88
78
08
88
70
ENDCHAR
STARTCHAR 003A
ENCODING 58
SWIDTH 375 0
DWIDTH 6 0
BBX 1 6 2 0
BITMAP
80
80
00
00
80
80
ENDCHAR
STARTCHAR 003B
ENCODING 59
SWIDTH 375 0
DWIDTH 6 0
BBX 2 7 1 -1
BITMAP
40
40
00
00
40
40
80
ENDCHAR
STARTCHAR 003C
ENCODING 60
SWIDTH 375 0
DWIDTH 6 0
BBX 5 5 0 1
BITMAP
18
60
80
60
18
ENDCHAR
STARTCHAR 003D
ENCODING 61
SWIDTH 375 0
DWIDTH 6 0
BBX 5 3 0 2
BITMAP
F8
00
F8
ENDCHAR
STARTCHAR 003E
ENCODING 62
SWIDTH 375 0
DWIDTH 6 0
BBX 5 5 0 1
BITMAP
C0
30
08
30
C0
ENDCHAR
STARTCHAR 003F
ENCODING 63
SWIDTH 375 0
DWIDTH 6 0
BBX 5 7 0 0
BITMAP
70
88
08
10
20
00
20
ENDCHAR
STARTCHAR 0040
ENCODING 64
SWIDTH 375 0
DWIDTH 6 0
BBX 5 7 0 0
BITMAP
70
98
A8
A8
98
80
70
ENDCHAR
STARTCHAR 0041
ENCODING 65
SWIDTH 375 0
DWIDTH 6 0
BBX 5 7 0 0
BITMAP
70
88
88
88
F8
88
88
ENDCHAR
STARTCHAR 0042
ENCODING 66
SWIDTH 375 0
DWIDTH 6 0
BBX 5 7 0 0
BITMAP
F0
88
88
F0
88
88
F0
ENDCHAR
STARTCHAR 0043
ENCODING 67
SWIDTH 375 0
DWIDTH 6 0
BBX 5 7 0 0
BITMAP
70
88
80
80
80
88
70
ENDCHAR
STARTCHAR 0044
ENCODING 68
SWIDTH 375 0
DWIDTH 6 0
BBX 5 7 0 0
BITMAP
F0
88
88
88
88
88
F0
ENDCHAR
STARTCHAR 0045
ENCODING 69
SWIDTH 375 0
DWIDTH 6 0
BBX 5 7 0 0
BITMAP
F8
80
80
F0
80
80
F8
ENDCHAR
STARTCHAR 0046
ENCODING 70
SWIDTH 375 0
DWIDTH 6 0
BBX 5 7 0 0
BITMAP
F8
80
80
F0
80
80
80
ENDCHAR
STARTCHAR 0047
ENCODING 71
SWIDTH 375 0
DWIDTH 6 0
BBX 5 7 0 0
BITMAP
70
88
80
B8
88
88
70
ENDCHAR
STARTCHAR 0048
ENCODING 72
SWIDTH 375 0
DWIDTH 6 0
BBX 5 7 0 0
BITMAP
88
88
88
F8
88
88
88
ENDCHAR
STARTCHAR 0049
ENCODING 73
SWIDTH 375 0
DWIDTH 6 0
BBX 5 7 0 0
BITMAP
F8
20
20
20
20
20
F8
ENDCHAR
STARTCHAR 004A
ENCODING 74
SWIDTH 375 0
DWIDTH 6 0
BBX 5 7 0 0
BITMAP
08
08
08
08
88
88
70
ENDCHAR
STARTCHAR 004B
ENCODING 75
SWIDTH 375 0
DWIDTH 6 0
BBX 5 7 0 0
BITMAP
88
90
A0
C0
A0
90
88
ENDCHAR
STARTCHAR 004C
ENCODING 76
SWIDTH 375 0
DWIDTH 6 0
BBX 5 7 0 0
BITMAP
80
80
80
80
80
80
F8
ENDCHAR
STARTCHAR 004D
ENCODING 77
SWIDTH 375 0
DWIDTH 6 0
BBX 5 7 0 0
BITMAP
88
D8
A8
88
88
88
88
ENDCHAR
STARTCHAR 004E
ENCODING 78
SWIDTH 375 0
DWIDTH 6 0
BBX 5 7 0 0
BITMAP
88
88
C8
A8
98
88
88
ENDCHAR
STARTCHAR 004F
ENCODING 79
SWIDTH 375 0
DWIDTH 6 0
BBX 5 7 0 0
BITMAP
70
88
88
88
88
88
70
ENDCHAR
STARTCHAR 0050
ENCODING 80
SWIDTH 375 0
DWIDTH 6 0
BBX 5 7 0 0
BITMAP
F0
88
88
F0
80
80
80
ENDCHAR
STARTCHAR 0051
ENCODING 81
SWIDTH 375 0
DWIDTH 6 0
BBX 5 8 0 -1
BITMAP
70
88
88
88
88
88
70
18
ENDCHAR
STARTCHAR 0052
ENCODING 82
SWIDTH 375 0
DWIDTH 6 0
BBX 5 7 0 0
BITMAP
F0
88
88
F0
88
88
88
ENDCHAR
STARTCHAR 0053
ENCODING 83
SWIDTH 375 0
DWIDTH 6 0
BBX 5 7 0 0
BITMAP
70
88
80
70
08
88
70
ENDCHAR
STARTCHAR 0054
ENCODING 84
SWIDTH 375 0
DWIDTH 6 0
BBX 5 7 0 0
BITMAP
F8
20
20
20
20
20
20
ENDCHAR
STARTCHAR 0055
ENCODING 85
SWIDTH 375 0
DWIDTH 6 0
BBX 5 7 0 0
BITMAP
88
88
88
88
88
88
70
ENDCHAR
STARTCHAR 0056
ENCODING 86
SWIDTH 375 0
DWIDTH 6 0
BBX 5 7 0 0
BITMAP
88
88
88
88
50
50
20
ENDCHAR
STARTCHAR 0057
ENCODING 87
SWIDTH 375 0
DWIDTH 6 0
BBX 5 7 0 0
BITMAP
88
88
88
88
A8
D8
88
ENDCHAR
STARTCHAR 0058
ENCODING 88
SWIDTH 375 0
DWIDTH 6 0
BBX 5 7 0 0
BITMAP
88
88
50
20
50
88
88
ENDCHAR
STARTCHAR 0059
ENCODING 89
SWIDTH 375 0
DWIDTH 6 0
BBX 5 7 0 0
BITMAP
88
88
50
20
20
20
20
ENDCHAR
STARTCHAR 005A
ENCODING 90
SWIDTH 375 0
DWIDTH 6 0
BBX 5 7 0 0
BITMAP
F8
08
10
20
40
80
F8
ENDCHAR
STARTCHAR 005B
ENCODING 91
SWIDTH 375 0
DWIDTH 6 0
BBX 2 7 2 0
BITMAP
C0
80
80
80
80
80
C0
ENDCHAR
STARTCHAR 005C
ENCODING 92
SWIDTH 375 0
DWIDTH 6 0
BBX 5 7 0 0
BITMAP
80
80
40
20
10
08
08
ENDCHAR
STARTCHAR 005D
ENCODING 93
SWIDTH 375 0
DWIDTH 6 0
BBX 2 7 1 0
BITMAP
C0
40
40
40
40
40
C0
ENDCHAR
STARTCHAR 005E
ENCODING 94
SWIDTH 375 0
DWIDTH 6 0
BBX 5 3 0 4
BITMAP
20
50
88
ENDCHAR
STARTCHAR 005F
ENCODING 95
SWIDTH 375 0
DWIDTH 6 0
BBX 5 1 0 0
BITMAP
F8
ENDCHAR
STARTCHAR 0060
ENCODING 96
SWIDTH 375 0
DWIDTH 6 0
BBX 2 2 1 5
BITMAP
80
40
ENDCHAR
STARTCHAR 0061
ENCODING 97
SWIDTH 375 0
DWIDTH 6 0
BBX 5 5 0 0
BITMAP
78
88
88
88
78
ENDCHAR
STARTCHAR 0062
ENCODING 98
SWIDTH 375 0
DWIDTH 6 0
BBX 5 7 0 0
BITMAP
80
80
F0
88
88
88
F0
ENDCHAR
STARTCHAR 0063
ENCODING 99
SWIDTH 375 0
DWIDTH 6 0
BBX 5 5 0 0
BITMAP
70
88
80
88
70
ENDCHAR
STARTCHAR 0064
ENCODING 100
SWIDTH 375 0
DWIDTH 6 0
BBX 5 7 0 0
BITMAP
08
08
78
88
88
88
78
ENDCHAR
STARTCHAR 0065
ENCODING 101
SWIDTH 375 0
DWIDTH 6 0
BBX 5 5 0 0
BITMAP
70
88
F8
80
70
ENDCHAR
STARTCHAR 0066
ENCODING 102
SWIDTH 375 0
DWIDTH 6 0
BBX 5 7 0 0
BITMAP
30
48
40
F0
40
40
40
ENDCHAR
STARTCHAR 0067
ENCODING 103
SWIDTH 375 0
DWIDTH 6 0
BBX 5 7 0 -2
BITMAP
78
88
88
88
78
08
70
ENDCHAR
STARTCHAR 0068
ENCODING 104
SWIDTH 375 0
DWIDTH 6 0
BBX 5 7 0 0
BITMAP
80
80
F0
88
88
88
88
ENDCHAR
STARTCHAR 0069
ENCODING 105
SWIDTH 375 0
DWIDTH 6 0
BBX 5 7 0 0
BITMAP
20
00
60
20
20
20
F8
ENDCHAR
STARTCHAR 006A
ENCODING 106
SWIDTH 375 0
DWIDTH 6 0
BBX 5 9 0 -2
BITMAP
08
00
18
08
08
08
08
88
70
ENDCHAR
STARTCHAR 006B
ENCODING 107
SWIDTH 375 0
DWIDTH 6 0
BBX 5 7 0 0
BITMAP
80
80
88
90
E0
90
88
ENDCHAR
STARTCHAR 006C
ENCODING 108
SWIDTH 375 0
DWIDTH 6 0
BBX 5 7 0 0
BITMAP
C0
40
40
40
40
40
38
ENDCHAR
STARTCHAR 006D
ENCODING 109
SWIDTH 375 0
DWIDTH 6 0
BBX 5 5 0 0
BITMAP
F0
A8
A8
A8
A8
ENDCHAR
STARTCHAR 006E
ENCODING 110
SWIDTH 375 0
DWIDTH 6 0
BBX 5 5 0 0
BITMAP
F0
88
88
88
88
ENDCHAR
STARTCHAR 006F
ENCODING 111
SWIDTH 375 0
DWIDTH 6 0
BBX 5 5 0 0
BITMAP
70
88
88
88
70
ENDCHAR
STARTCHAR 0070
ENCODING 112
SWIDTH 375 0
DWIDTH 6 0
BBX 5 7 0 -2
BITMAP
F0
88
88
88
F0
80
80
ENDCHAR
STARTCHAR 0071
ENCODING 113
SWIDTH 375 0
DWIDTH 6 0
BBX 5 7 0 -2
BITMAP
78
88
88
88
78
08
08
ENDCHAR
STARTCHAR 0072
ENCODING 114
SWIDTH 375 0
DWIDTH 6 0
BBX 5 5 0 0
BITMAP
B0
C8
80
80
80
ENDCHAR
STARTCHAR 0073
ENCODING 115
SWIDTH 375 0
DWIDTH 6 0
BBX 5 5 0 0
BITMAP
78
80
70
08
F0
ENDCHAR
STARTCHAR 0074
ENCODING 116
SWIDTH 375 0
DWIDTH 6 0
BBX 5 7 0 0
BITMAP
40
40
F0
40
40
40
38
ENDCHAR
STARTCHAR 0075
ENCODING 117
SWIDTH 375 0
DWIDTH 6 0
BBX 5 5 0 0
BITMAP
88
88
88
88
78
ENDCHAR
STARTCHAR 0076
ENCODING 118
SWIDTH 375 0
DWIDTH 6 0
BBX 5 5 0 0
BITMAP
88
88
88
50
20
ENDCHAR
STARTCHAR 0077
ENCODING 119
SWIDTH 375 0
DWIDTH 6 0
BBX 5 5 0 0
BITMAP
88
88
A8
A8
50
ENDCHAR
STARTCHAR 0078
ENCODING 120
SWIDTH 375 0
DWIDTH 6 0
BBX 5 5 0 0
BITMAP
88
50
20
50
88
ENDCHAR
STARTCHAR 0079
ENCODING 121
SWIDTH 375 0
DWIDTH 6 0
BBX 5 7 0 -2
BITMAP
88
88
88
88
78
08
70
ENDCHAR
STARTCHAR 007A
ENCODING 122
SWIDTH 375 0
DWIDTH 6 0
BBX 5 5 0 0
BITMAP
F8
10
20
40
F8
ENDCHAR
STARTCHAR 007B
ENCODING 123
SWIDTH 375 0
DWIDTH 6 0
BBX 3 7 1 0
BITMAP
20
40
40
80
40
40
20
ENDCHAR
STARTCHAR 007C
ENCODING 124
SWIDTH 375 0
DWIDTH 6 0
BBX 1 7 2 0
BITMAP
80
80
80
80
80
80
80
ENDCHAR
STARTCHAR 007D
ENCODING 125
SWIDTH 375 0
DWIDTH 6 0
BBX 3 7 1 0
BITMAP
80
40
40
20
40
40
80
ENDCHAR
STARTCHAR 007E
ENCODING 126
SWIDTH 375 0
DWIDTH 6 0
BBX 5 2 0 3
BITMAP
48
B0
ENDCHAR
STARTCHAR 00A0
ENCODING 160
SWIDTH 375 0
DWIDTH 6 0
BBX 0 0 0 0
BITMAP
ENDCHAR
STARTCHAR 00A1
ENCODING 161
SWIDTH 375 0
DWIDTH 6 0
BBX 1 7 2 0
BITMAP
80
00
80
80
80
80
80
ENDCHAR
STARTCHAR 00A2
ENCODING 162
SWIDTH 375 0
DWIDTH 6 0
BBX 5 7 0 0
BITMAP
20
70
A8
A0
A8
70
20
ENDCHAR
STARTCHAR 00A3
ENCODING 163
SWIDTH 375 0
DWIDTH 6 0
BBX 5 7 0 0
BITMAP
30
48
40
F0
40
40
F8
ENDCHAR
STARTCHAR 00A4
ENCODING 164
SWIDTH 375 0
DWIDTH 6 0
BBX 5 5 0 1
BITMAP
88
70
50
70
88
ENDCHAR
STARTCHAR 00A5
ENCODING 165
SWIDTH 375 0
DWIDTH 6 0
BBX 5 7 0 0
BITMAP
88
50
20
F8
20
F8
20
ENDCHAR
STARTCHAR 00A6
ENCODING 166
SWIDTH 375 0
DWIDTH 6 0
BBX 1 7 2 0
BITMAP
80
80
80
00
80
80
80
ENDCHAR
STARTCHAR 00A7
ENCODING 167
SWIDTH 375 0
DWIDTH 6 0
BBX 5 7 0 0
BITMAP
78
80
70
88
70
08
F0
ENDCHAR
STARTCHAR 00A8
ENCODING 168
SWIDTH 375 0
DWIDTH 6 0
BBX 3 1 1 6
BITMAP
A0
ENDCHAR
STARTCHAR 00A9
ENCODING 169
SWIDTH 375 0
DWIDTH 6 0
BBX 5 7 0 0
BITMAP
70
D8
A8
B8
A8
D8
70
ENDCHAR
STARTCHAR 2000
ENCODING 8192
SWIDTH 375 0
DWIDTH 6 0
BBX 0 0 0 0
BITMAP
ENDCHAR
STARTCHAR 2001
ENCODING 8193
SWIDTH 375 0
DWIDTH 6 0
BBX 0 0 0 0
BITMAP
ENDCHAR
STARTCHAR 2002
ENCODING 8194
SWIDTH 375 0
DWIDTH 6 0
BBX 0 0 0 0
BITMAP
ENDCHAR
STARTCHAR 2003
ENCODING 8195
SWIDTH 375 0
DWIDTH 6 0
BBX 0 0 0 0
BITMAP
ENDCHAR
STARTCHAR 2004
ENCODING 8196
SWIDTH 375 0
DWIDTH 6 0
BBX 0 0 0 0
BITMAP
ENDCHAR
STARTCHAR 2005
ENCODING 8197
SWIDTH 375 0
DWIDTH 6 0
BBX 0 0 0 0
BITMAP
ENDCHAR
STARTCHAR 2006
ENCODING 8198
SWIDTH 375 0
DWIDTH 6 0
BBX 0 0 0 0
BITMAP
ENDCHAR
STARTCHAR 2007
ENCODING 8199
SWIDTH 375 0
DWIDTH 6 0
BBX 0 0 0 0
BITMAP
ENDCHAR
STARTCHAR 2008
ENCODING 8200
SWIDTH 375 0
DWIDTH 6 0
BBX 0 0 0 0
BITMAP
ENDCHAR
STARTCHAR 2009
ENCODING 8201
SWIDTH 375 0
DWIDTH 6 0
BBX 0 0 0 0
BITMAP
ENDCHAR
STARTCHAR 200A
ENCODING 8202
SWIDTH 375 0
DWIDTH 6 0
BBX 0 0 0 0
BITMAP
ENDCHAR
STARTCHAR 20AC
ENCODING 8364
SWIDTH 375 0
DWIDTH 6 0
BBX 5 7 0 0
BITMAP
30
48
E0
40
E0
48
30
ENDCHAR
STARTCHAR 3000
ENCODING 12288
SWIDTH 375 0
DWIDTH 6 0
BBX 0 0 0 0
BITMAP
ENDCHAR
ENDFONT
